<svg width="83" height="15" viewBox="0 0 83 15" fill="none" xmlns="http://www.w3.org/2000/svg">
<path d="M6.63589 1.48359C7.02162 0.82132 7.97838 0.821321 8.36411 1.48359L9.70283 3.78202C9.84413 4.02462 10.0809 4.19665 10.3553 4.25607L12.9549 4.81901C13.704 4.98121 13.9996 5.89114 13.489 6.46265L11.7167 8.44609C11.5297 8.65545 11.4392 8.9338 11.4675 9.21312L11.7354 11.8595C11.8126 12.622 11.0386 13.1843 10.3373 12.8753L7.90325 11.8027C7.64633 11.6895 7.35366 11.6895 7.09675 11.8027L4.66272 12.8753C3.96138 13.1843 3.18736 12.622 3.26456 11.8595L3.5325 9.21312C3.56078 8.9338 3.47034 8.65545 3.28328 8.44609L1.51103 6.46265C1.00037 5.89114 1.29603 4.98121 2.04508 4.81901L4.6447 4.25607C4.91909 4.19665 5.15587 4.02462 5.29717 3.78202L6.63589 1.48359Z" fill="#FF5F5F"/>
<path d="M40.6359 1.48359C41.0216 0.82132 41.9784 0.821321 42.3641 1.48359L43.7028 3.78202C43.8441 4.02462 44.0809 4.19665 44.3553 4.25607L46.9549 4.81901C47.704 4.98121 47.9996 5.89114 47.489 6.46265L45.7167 8.44609C45.5297 8.65545 45.4392 8.9338 45.4675 9.21312L45.7354 11.8595C45.8126 12.622 45.0386 13.1843 44.3373 12.8753L41.9032 11.8027C41.6463 11.6895 41.3537 11.6895 41.0968 11.8027L38.6627 12.8753C37.9614 13.1843 37.1874 12.622 37.2646 11.8595L37.5325 9.21312C37.5608 8.9338 37.4703 8.65545 37.2833 8.44609L35.511 6.46265C35.0004 5.89114 35.296 4.98121 36.0451 4.81901L38.6447 4.25607C38.9191 4.19665 39.1559 4.02462 39.2972 3.78202L40.6359 1.48359Z" fill="#FF5F5F"/>
<path d="M23.6359 1.48359C24.0216 0.82132 24.9784 0.821321 25.3641 1.48359L26.7028 3.78202C26.8441 4.02462 27.0809 4.19665 27.3553 4.25607L29.9549 4.81901C30.704 4.98121 30.9996 5.89114 30.489 6.46265L28.7167 8.44609C28.5297 8.65545 28.4392 8.9338 28.4675 9.21312L28.7354 11.8595C28.8126 12.622 28.0386 13.1843 27.3373 12.8753L24.9032 11.8027C24.6463 11.6895 24.3537 11.6895 24.0968 11.8027L21.6627 12.8753C20.9614 13.1843 20.1874 12.622 20.2646 11.8595L20.5325 9.21312C20.5608 8.9338 20.4703 8.65545 20.2833 8.44609L18.511 6.46265C18.0004 5.89114 18.296 4.98121 19.0451 4.81901L21.6447 4.25607C21.9191 4.19665 22.1559 4.02462 22.2972 3.78202L23.6359 1.48359Z" fill="#FF5F5F"/>
<path d="M57.6359 1.48359C58.0216 0.82132 58.9784 0.821321 59.3641 1.48359L60.7028 3.78202C60.8441 4.02462 61.0809 4.19665 61.3553 4.25607L63.9549 4.81901C64.704 4.98121 64.9996 5.89114 64.489 6.46265L62.7167 8.44609C62.5297 8.65545 62.4392 8.9338 62.4675 9.21312L62.7354 11.8595C62.8126 12.622 62.0386 13.1843 61.3373 12.8753L58.9032 11.8027C58.6463 11.6895 58.3537 11.6895 58.0968 11.8027L55.6627 12.8753C54.9614 13.1843 54.1874 12.622 54.2646 11.8595L54.5325 9.21312C54.5608 8.9338 54.4703 8.65545 54.2833 8.44609L52.511 6.46265C52.0004 5.89114 52.296 4.98121 53.0451 4.81901L55.6447 4.25607C55.9191 4.19665 56.1559 4.02462 56.2972 3.78202L57.6359 1.48359Z" fill="#FF5F5F"/>
<path d="M74.2687 1.48359C74.6544 0.82132 75.6112 0.821321 75.9969 1.48359L77.3356 3.78202C77.4769 4.02462 77.7137 4.19665 77.9881 4.25607L80.5877 4.81901C81.3368 4.98121 81.6324 5.89114 81.1218 6.46265L79.3495 8.44609C79.1625 8.65545 79.072 8.9338 79.1003 9.21312L79.3683 11.8595C79.4455 12.622 78.6714 13.1843 77.9701 12.8753L75.5361 11.8027C75.2791 11.6895 74.9865 11.6895 74.7296 11.8027L72.2955 12.8753C71.5942 13.1843 70.8202 12.622 70.8974 11.8595L71.1653 9.21312C71.1936 8.9338 71.1032 8.65545 70.9161 8.44609L69.1438 6.46265C68.6332 5.89114 68.9288 4.98121 69.6779 4.81901L72.2775 4.25607C72.5519 4.19665 72.7887 4.02462 72.93 3.78202L74.2687 1.48359Z" fill="#FF5F5F"/>
</svg>
