<svg width="13" height="13" viewBox="0 0 13 13" fill="none" xmlns="http://www.w3.org/2000/svg">
<path d="M5.63589 1.48359C6.02162 0.82132 6.97838 0.821321 7.36411 1.48359L8.70283 3.78202C8.84413 4.02462 9.08091 4.19665 9.3553 4.25607L11.9549 4.81901C12.704 4.98121 12.9996 5.89114 12.489 6.46265L10.7167 8.44609C10.5297 8.65545 10.4392 8.9338 10.4675 9.21312L10.7354 11.8595C10.8126 12.622 10.0386 13.1843 9.33728 12.8753L6.90325 11.8027C6.64633 11.6895 6.35366 11.6895 6.09675 11.8027L3.66272 12.8753C2.96138 13.1843 2.18736 12.622 2.26456 11.8595L2.5325 9.21312C2.56078 8.9338 2.47034 8.65545 2.28328 8.44609L0.511027 6.46265C0.000371814 5.89114 0.296025 4.98121 1.04508 4.81901L3.6447 4.25607C3.9191 4.19665 4.15587 4.02462 4.29717 3.78202L5.63589 1.48359Z" fill="#6966FF"/>
</svg>
