<svg width="40" height="40" viewBox="0 0 40 40" fill="none" xmlns="http://www.w3.org/2000/svg">
<g opacity="0.7">
<path d="M40 20C40 31.0457 31.0457 40 20 40C8.95431 40 0 31.0457 0 20C0 8.95431 8.95431 0 20 0C31.0457 0 40 8.95431 40 20Z" fill="#D9D9D9"/>
<circle cx="20" cy="20" r="16" fill="white"/>
</g>
<path opacity="0.7" d="M28 21.5C28.8284 21.5 29.5 20.8284 29.5 20C29.5 19.1716 28.8284 18.5 28 18.5V21.5ZM9.93934 18.9393C9.35355 19.5251 9.35355 20.4749 9.93934 21.0607L19.4853 30.6066C20.0711 31.1924 21.0208 31.1924 21.6066 30.6066C22.1924 30.0208 22.1924 29.0711 21.6066 28.4853L13.1213 20L21.6066 11.5147C22.1924 10.9289 22.1924 9.97919 21.6066 9.3934C21.0208 8.80761 20.0711 8.80761 19.4853 9.3934L9.93934 18.9393ZM28 18.5L11 18.5V21.5L28 21.5V18.5Z" fill="black" fill-opacity="0.3"/>
</svg>
